<svg id="Layer_2" data-name="Layer 2" xmlns="http://www.w3.org/2000/svg" viewBox="0 0 114.02 59.94"><defs><style>.cls-1{fill:#231f20}</style></defs><g id="Layer_1-2" data-name="Layer 1"><path class="cls-1" d="M24.67 10.07c0-1.1-1.33-2.41-2.64-3.14l-.88-.49-.64 1.08c-.92 1.56-2.8 4.29-4.98 7.44-4.67 6.77-12.47 18.09-12.47 21.08 0 3.33 3.11 4.2 4.58 4.29.07-5.11 6.74-14.79 12.12-22.58 2.24-3.25 4.79-6.94 4.91-7.69z"/><path class="cls-1" d="M40.03 22.96c1.23-3.17 1.88-5.98 1.88-8.12C41.91 6.65 32.05 0 25.61 0 14.56 0 4.11 5.55 4.11 11.41c0 2.97 1.93 5.57 3.09 5.57.24 0 .42-.1.55-.21-1.03-.1-1.49-.75-1.49-1.4 0-2.95 6.8-6.84 13.12-9.21l.76-.28-.06-.03.75-.22 1.05-.39-.06.09.4-.12c2.13-.64 4.25-.98 6.11-.98 2.91 0 5.17.79 6.7 2.35 1.3 1.25 1.96 3.11 1.96 5.51 0 3.12-1.15 7.02-3.24 10.98l-.24.46-.51.04c-12 .99-21.03 8.54-21.03 12.96v.11c.11 4.53 2.51 5.46 6.08 5.46 9.77 0 17.55-9.43 21.24-17.51l.27-.58.62.03-.5-.17.35-.91zm-8.85 4.29C26.6 33.89 21.03 37.86 16.3 37.86c-2.22 0-2.33-1.45-2.33-1.75 0-2.61 6.64-7.48 16.17-10.3l2.55-.76-1.51 2.19zM91.05 7.97h.94v.94c0 .73-.21 1.48-.63 2.23-.2.37-.42.72-.66 1.05.44-.15.85-.36 1.24-.61 1.04-.67 1.86-1.5 2.44-2.45.57-.94.88-1.89.93-2.81.04-.85-.16-1.54-.63-2.11-.44-.53-1.18-.79-2.21-.79-1.06.07-1.85.35-2.35.84-.51.49-.78 1.02-.84 1.61-.06.59.07 1.09.4 1.54.18.24.51.56 1.36.56z"/><path class="cls-1" d="M108.82 29.52c-.2-1.99-.76-3.89-1.35-5.91-.25-.86-.51-1.72-.73-2.58-.5-1.94-.34-3.62-.18-5.24.08-.8.16-1.63.17-2.5 0-1.04-.45-3.1-1.18-3.96-.04-.05-.09-.1-.14-.15-.64-.55-2.49-.73-3.91-.58-2.29.23-3.64 3.58-3.77 5.49-.3 4.51-3.21 7.95-5.14 11.82 3.08-.46 3.78-3.88 4.77-6.39l.85-2.14.89 2.12c.73 1.74 1.68 3.49 2.6 5.18 1.49 2.74 2.9 5.32 3.12 7.48.25 2.44-1.16 4.24-3.49 4.47-5.06.51-10.75-4.41-9.7-9.05-.02.02-.03.04-.05.05-.02-.01-.04-.02-.07 0-4.6 3.37-9.01 7.96-15.02 7.96-3.38 0-5.32-1.71-5.32-4.7 0-.7.15-1.42.3-2.14l.25-1.21 1.1.57c.65.34 2.12.9 4.57.9 3.67 0 11.15-4.35 11.15-9.4 0-2.8-3.86-7.12-9-7.12s-12.5 7.81-13.89 15.66c-3.58 4.1-8.51 7.43-13.49 7.43-3.38 0-5.32-1.71-5.32-4.7 0-.7.15-1.42.3-2.14l.25-1.21 1.1.57c.65.34 2.12.9 4.57.9 3.67 0 11.15-4.35 11.15-9.4 0-2.8-3.86-7.12-9-7.12-5.71 0-14.14 9.58-14.14 18.19 0 3.66 1.27 9.8 9.76 9.8 6.57 0 11.57-4.99 14.56-9.7.02 3.67 1.34 9.7 9.76 9.7 5.32 0 9.16-2.95 12.25-6.73.36 1.02.97 2.07 1.34 2.69 2.06 3.42 6.34 5.2 10.24 4.8 5.23-.53 10.47-5.16 9.81-11.72zm-36.45-3.63c2.16-5.15 7-10.92 10.25-10.92.42 0 .84.1 1.24.29.58.28.88.86.88 1.72 0 2.78-4.3 8.76-11.32 10.19l-1.74.35.69-1.64zm-24.32 0c2.16-5.15 7-10.92 10.25-10.92.42 0 .84.1 1.24.29.58.28.88.86.88 1.72 0 2.78-4.3 8.76-11.32 10.19l-1.74.35.69-1.64z"/><g><path class="cls-1" d="M3.74 50.58c.58-.33 1.24-.5 1.98-.5.68 0 1.28.15 1.79.44.52.29.92.73 1.21 1.32h2.21c-.42-1.08-1.09-1.91-2.03-2.49-.93-.59-1.99-.88-3.19-.88-1.04 0-2 .25-2.88.73S1.26 50.37.75 51.24s-.77 1.86-.77 2.95.26 2.08.77 2.95 1.2 1.55 2.07 2.04c.87.49 1.83.73 2.89.73 1.19 0 2.26-.29 3.19-.87s1.61-1.41 2.03-2.49H8.72c-.29.59-.69 1.03-1.21 1.32-.52.29-1.11.44-1.79.44-.74 0-1.4-.17-1.98-.51s-1.04-.82-1.36-1.44-.49-1.35-.49-2.18.16-1.55.49-2.18c.33-.62.78-1.1 1.36-1.44zM23.52 53.96c.42-.6.64-1.26.64-1.99 0-.62-.15-1.19-.44-1.69s-.74-.91-1.34-1.21c-.6-.3-1.33-.45-2.19-.45h-3.87v11.21h1.84v-4.49h1.4l2.58 4.49h2.19l-2.78-4.65c.88-.21 1.54-.62 1.96-1.22zm-5.37-.09v-3.76h2.03c.7 0 1.22.17 1.57.49.34.33.52.78.52 1.36s-.17 1.04-.52 1.39c-.35.34-.87.52-1.56.52h-2.03zM29.74 59.82h6.2v-1.5h-4.36v-3.43h3.87v-1.5h-3.87v-3.3h4.36v-1.5h-6.2v11.23zM44.78 48.59l-4.02 11.23h1.92l.81-2.29h4.7l.81 2.29h1.94l-4.02-11.23h-2.13zM44 56.03l1.84-5.21 1.82 5.21H44zM55.32 50.11h3v9.71h1.84v-9.71h2.98v-1.5h-7.82v1.5zM68.23 48.61h1.84v11.21h-1.84zM83.73 49.2c-.88-.49-1.84-.73-2.9-.73s-2 .25-2.88.73-1.57 1.17-2.08 2.04-.77 1.86-.77 2.95.26 2.08.77 2.96c.51.88 1.21 1.56 2.08 2.05s1.84.73 2.88.73 2.02-.25 2.9-.73c.88-.49 1.57-1.17 2.07-2.05.51-.88.76-1.86.76-2.96s-.25-2.08-.76-2.95-1.2-1.55-2.07-2.04zm.45 7.18c-.33.63-.78 1.11-1.36 1.45s-1.24.51-1.99.51-1.4-.17-1.98-.51-1.04-.82-1.36-1.45c-.33-.63-.49-1.36-.49-2.19s.16-1.55.49-2.18c.33-.62.78-1.1 1.36-1.44.58-.33 1.24-.5 1.98-.5s1.4.17 1.99.5c.58.33 1.04.81 1.36 1.44.33.62.49 1.35.49 2.18s-.16 1.56-.49 2.19zM98.97 56.95l-5.54-8.36h-1.84v11.23h1.84v-8.37l5.54 8.37h1.84V48.59h-1.84v8.36zM113.53 54.94c-.33-.42-.73-.74-1.19-.94-.47-.2-1.07-.41-1.82-.61-.56-.15-1-.29-1.32-.42-.32-.13-.59-.3-.8-.52-.21-.22-.31-.5-.31-.85 0-.51.17-.89.5-1.16.33-.27.76-.4 1.29-.4.58 0 1.05.15 1.4.44.36.29.55.64.58 1.05h2.03c-.08-.95-.46-1.69-1.15-2.24-.69-.54-1.58-.81-2.67-.81-.76 0-1.44.13-2.02.39-.58.26-1.03.63-1.36 1.11-.32.48-.48 1.05-.48 1.69 0 .7.16 1.26.48 1.68.32.42.71.73 1.17.93.46.2 1.05.4 1.78.59.58.15 1.04.29 1.36.42s.6.31.82.55.33.54.33.92c0 .48-.18.88-.53 1.19-.36.31-.85.46-1.49.46s-1.09-.16-1.43-.47c-.34-.31-.53-.71-.57-1.19h-1.97c0 .65.17 1.21.52 1.69.34.48.82.86 1.42 1.12s1.28.4 2.03.4c.8 0 1.49-.15 2.07-.46.59-.31 1.03-.71 1.34-1.22s.46-1.04.46-1.61c0-.71-.16-1.28-.49-1.7z"/></g></g></svg>